PathFileType	4	(X/Y/Z)	/Users/visionmauri/Downloads/Videos/OAW05-top_Sports2D/OAW05-top_Sports2D_px_person00.trc
DataRate	CameraRate	NumFrames	NumMarkers	Units	OrigDataRate	OrigDataStartFrame	OrigNumFrames
28.0	28.0	11	22	m	28.0	272	2182
Frame#	Time	Hip			RHip			RKnee			RAnkle			RBigToe			RSmallToe			RHeel			LHip			LKnee			LAnkle			LBigToe			LSmallToe			LHeel			Neck			Head			Nose			RShoulder			RElbow			RWrist			LShoulder			LElbow			LWrist			
		X1	Y1	Z1	X2	Y2	Z2	X3	Y3	Z3	X4	Y4	Z4	X5	Y5	Z5	X6	Y6	Z6	X7	Y7	Z7	X8	Y8	Z8	X9	Y9	Z9	X10	Y10	Z10	X11	Y11	Z11	X12	Y12	Z12	X13	Y13	Z13	X14	Y14	Z14	X15	Y15	Z15	X16	Y16	Z16	X17	Y17	Z17	X18	Y18	Z18	X19	Y19	Z19	X20	Y20	Z20	X21	Y21	Z21	X22	Y22	Z22
272	9.718739765507303	532.0474277903332	504.04098841862094	0.0	514.1335928641354	505.5602027053823	0.0	514.9890589192427	584.5347068412367	0.0	516.9060817088573	654.9282323164964	0.0	518.5124618014302	677.5361936820673	0.0	508.067959114778	675.543887189063	0.0	518.7542499022444	665.7916309282454	0.0	549.8228130381926	505.2679053983021	0.0	550.7105869436385	583.7058586420026	0.0	548.321814221582	656.5400991774237	0.0	544.7118759425645	679.4210458119393	0.0	556.4843631085264	679.124392639391	0.0	546.2389747567971	668.517843145977	0.0	534.7563388922318	404.2207759849782	0.0	537.8040653440885	351.6506091782143	0.0	535.8067767875392	388.73681630771244	0.0	503.6643654274038	410.3666178772599	0.0	490.6956639365042	464.8365107727832	0.0	486.76560194380323	515.5950264527594	0.0	566.6162614916295	412.1445205434344	0.0	570.5758332912159	469.37817322780313	0.0	573.8991873169697	518.2555365793328	0.0
273	9.754470426409904	532.0801629792201	505.0834665688813	0.0	513.7815175556401	507.83861369842356	0.0	514.418420523722	586.6643999897182	0.0	516.6074596556975	654.7456936880577	0.0	518.6792241847874	677.788499377378	0.0	508.41649655713843	675.7348988580604	0.0	518.7708372967576	665.2011950820605	0.0	550.0716655902246	507.7464552491653	0.0	551.1608138295475	585.8888998429642	0.0	549.7522269411364	659.3836635378418	0.0	546.0993475333903	680.5557658915155	0.0	558.0722407557902	680.4456352207131	0.0	547.0910836653292	671.6170425970905	0.0	534.7392597079598	404.1912155479453	0.0	537.4373674605945	351.35013262959734	0.0	535.4820333575922	389.7417553378872	0.0	503.8139763917057	411.47028940600586	0.0	490.5871015581845	465.4164170219996	0.0	487.0590800428034	515.8393061413084	0.0	567.0102862367455	413.33555691352024	0.0	570.3015871807536	469.75691988339395	0.0	573.287373629705	517.7631478993998	0.0
274	9.790201087312504	532.1765329574117	506.9952351506294	0.0	513.4818778859162	509.9990978517094	0.0	513.8134234111659	587.580438902942	0.0	516.5280992596327	654.5364780278389	0.0	518.6825103603001	677.5299092411499	0.0	508.5437055172428	675.5169269580833	0.0	518.9541200266932	664.826146191778	0.0	550.4041118523597	510.03094859812904	0.0	551.4546366398956	587.2458136417907	0.0	550.92079310983	660.6306639968996	0.0	547.2578421311944	681.3455209875641	0.0	558.808975381581	681.5725351457697	0.0	547.9234971851752	673.245344659194	0.0	534.9852454125029	405.0501355747216	0.0	537.4463859636343	351.61166556575296	0.0	535.6540045719909	391.4180605546327	0.0	503.96122011533987	413.12780396030973	0.0	490.98894537210987	467.1674265909301	0.0	487.821361332576	516.7193030585571	0.0	567.6923284687915	414.83567904032924	0.0	570.2622940283782	471.1846850878765	0.0	573.1131146020647	518.6710511639111	0.0
275	9.825931748215105	532.3500135052053	509.14480030550806	0.0	513.3705694503166	511.60248523811657	0.0	513.3835807970553	587.519137472588	0.0	516.815965022437	654.6476588811909	0.0	518.4115752034811	677.0737487585575	0.0	508.4351819791085	675.0902171697657	0.0	519.201105935474	665.3285286427353	0.0	550.6032272673377	511.8827120137576	0.0	551.6276347547987	588.1587327112543	0.0	551.9065997600138	661.6057651752432	0.0	547.9102102916404	682.6831101555305	0.0	558.9349477250813	683.0923212392229	0.0	548.8925220364694	675.1412253703883	0.0	535.4890123067802	407.11115397940443	0.0	537.9452274220153	352.9655536783804	0.0	536.2952720654813	393.1025822014462	0.0	504.2837499767517	414.9912814620349	0.0	491.94801354369264	469.19657468617595	0.0	488.7580737231611	517.9754291543284	0.0	568.5457790818839	416.5873190487128	0.0	571.0162582898716	473.52074074365834	0.0	573.9023310252695	522.2407267136084	0.0
276	9.861662409117706	532.8120101414914	511.1390248338945	0.0	513.9124190060079	513.2854596724497	0.0	513.5929987072032	587.8255553211834	0.0	517.2102208755692	655.028359135355	0.0	518.2201561412168	676.9944561185408	0.0	508.3657723667868	674.7810141225045	0.0	519.412176933608	666.1697209351485	0.0	550.7405086156567	513.9690378703749	0.0	551.6236866582651	589.1628442669347	0.0	552.0536095176288	663.2660639093968	0.0	548.139590197749	684.7065274234967	0.0	558.9832814528294	685.0877924060608	0.0	548.8974119080475	677.656788076114	0.0	536.424508550953	409.43949219706894	0.0	539.0838258892611	354.91738895353774	0.0	537.4736170988994	395.11946835925835	0.0	504.85492496190784	416.82797762520886	0.0	492.9074082470972	470.9237355130899	0.0	489.6964302301533	519.3178132334763	0.0	569.5602354299663	418.72452353768267	0.0	572.4541109616747	476.3740144032888	0.0	575.3592860978603	526.878517359612	0.0
277	9.897393070020305	533.6488141448257	512.8380044846117	0.0	515.1476829475585	515.6428146278461	0.0	514.4631159067706	589.5422827489058	0.0	517.4222645023715	655.1686824280707	0.0	518.3099147859783	677.4082605837265	0.0	508.40298974494647	674.785880089961	0.0	519.5141929250753	666.4107105353112	0.0	551.1045002250887	516.6108292892832	0.0	551.2384013811233	590.8497482736304	0.0	550.5579244119335	665.911009941645	0.0	548.1159845960146	686.9265368605674	0.0	559.0817850377282	687.3566314914991	0.0	546.8985951074719	680.9617356708216	0.0	537.8266188768079	411.08184769674097	0.0	540.7102877760195	356.4058508645011	0.0	539.0292825088255	397.551449573009	0.0	505.6301684348528	418.56465719717886	0.0	493.36820292648673	472.3835216366906	0.0	490.4857873178818	520.6985097866276	0.0	570.7356789053212	420.90182562938054	0.0	573.9275747587918	479.3707294926657	0.0	576.8429815310606	530.5206582937686	0.0
278	9.933123730922906	534.6138659393258	514.2173093107598	0.0	516.4673727456654	517.8510445379674	0.0	515.4621358917459	592.1038754549295	0.0	517.5047990313124	654.840568914223	0.0	518.4269267758261	678.2642670255184	0.0	508.40441059486005	675.3208008700009	0.0	519.5529276734695	665.5295691760736	0.0	551.8551316495585	518.8664262787232	0.0	550.3813447895144	593.1984613912867	0.0	547.9046656818691	669.4239074876208	0.0	547.6237396106864	689.8436497441627	0.0	558.6640566603888	690.2054324546882	0.0	543.6084479203363	684.9223795402437	0.0	539.3229578275486	412.56752161218674	0.0	542.2612640024016	357.53604889655344	0.0	540.6718044048772	399.50227065463554	0.0	506.6517876308392	420.1129581034698	0.0	493.58221323797545	473.88049290112247	0.0	490.9657192997279	522.2116449568302	0.0	571.9119033076455	422.6691042204481	0.0	575.1683877927313	482.0992149018002	0.0	578.1871359094687	533.3046921285113	0.0
279	9.968854391825506	535.4596841563522	515.7081175679082	0.0	517.4473137590489	519.1914271684849	0.0	516.0995035184889	593.9948228231818	0.0	517.7281326376196	654.160113234183	0.0	518.4003011952739	679.3007028580579	0.0	508.3696209842169	675.997179578658	0.0	519.6544376194296	663.4580497250284	0.0	552.7489042548243	520.233748947129	0.0	549.33377874802	595.5208669414025	0.0	545.66188730106	673.3677529482151	0.0	546.2275316574716	694.5236114819976	0.0	557.1351956798559	694.2465689984031	0.0	540.8850250660829	688.5012782128541	0.0	540.6904141625263	414.7072248732229	0.0	543.7546065597828	359.4495261251495	0.0	542.3304911891354	400.83242752616667	0.0	507.8689751821328	421.46762596980864	0.0	494.0689357202247	475.56422332876804	0.0	491.15876730930205	524.121373695774	0.0	573.1691517329648	424.2230445749718	0.0	576.3608094265248	484.0997615815085	0.0	579.6487600167859	535.8215412733902	0.0
280	10.004585052728107	536.2908570791302	517.665413726184	0.0	518.1783135219623	520.3161412512196	0.0	516.4711153733176	594.3763825689531	0.0	518.1080049536748	653.3236973820527	0.0	518.3992510246545	680.1616984009536	0.0	508.38039551495746	676.1627983227023	0.0	519.7876914961731	660.6655150154442	0.0	553.4691738491709	521.555653917084	0.0	548.5623324053715	597.5852970600665	0.0	544.6885517002605	677.4518664936595	0.0	544.1093711977488	700.3771413543366	0.0	554.9550564948452	699.2901834500556	0.0	539.7154885876081	691.1959934948181	0.0	542.2544126964466	416.75580221354244	0.0	545.8703682064447	362.2652907389666	0.0	544.2416012051133	402.2461762517853	0.0	509.1178529267074	422.59486070250983	0.0	494.8589289559147	477.3859069046955	0.0	491.33781129219005	526.7725459594407	0.0	574.890343256355	425.80974056484183	0.0	577.6337314983317	485.2791621781267	0.0	581.2232055473677	537.4629377405682	0.0
281	10.040315713630706	537.2598553510572	519.5012871225848	0.0	518.831225949006	521.7387253671333	0.0	517.0503098874203	593.73790940877	0.0	518.2542908520066	652.6265292234752	0.0	518.561619318334	680.9785942329619	0.0	508.32777678728826	676.2388163016442	0.0	519.7681873447641	658.0329874645239	0.0	554.1505047652892	523.2184107733992	0.0	548.4500761962613	599.7684117407373	0.0	544.586880719202	681.4721011302441	0.0	542.0711437361088	705.387710539186	0.0	553.1543120506103	704.1047526622391	0.0	539.7404742071024	693.5916757189494	0.0	544.0766367852088	417.5651030272864	0.0	548.2581738425283	364.60680794867557	0.0	546.3986528125463	403.5461136256556	0.0	510.3588495768965	423.28261324664226	0.0	495.62424290433563	479.14810736051817	0.0	491.60881248531524	529.9376216289519	0.0	576.9801348930658	427.07535189080346	0.0	579.0324760107272	486.07819256766527	0.0	582.7082762150163	538.2071687574747	0.0
282	10.076046374533307	538.1656278071426	520.3993841349335	0.0	519.4534031029883	522.9080080933812	0.0	518.0307545852321	592.9244406087633	0.0	518.0283793020022	651.9246637345251	0.0	518.7794893858738	681.6930817253182	0.0	508.0625792865884	676.711255924914	0.0	519.588832797125	655.8947661483687	0.0	555.1140752290971	524.4855559035494	0.0	549.0591921923194	601.971968715162	0.0	544.7735185395353	684.7530263336463	0.0	540.7617463617706	708.3151925325964	0.0	552.1269899519373	707.4063473028094	0.0	540.3658347845818	695.7754985802384	0.0	545.5092582084633	417.45049830971124	0.0	549.5303042712824	365.5316147861647	0.0	548.0895703502441	404.0885140764848	0.0	511.54560684618724	423.54498388324765	0.0	496.2839847678728	480.33745320087843	0.0	491.78406443086243	532.5867906458261	0.0	578.8166976328423	427.6905061392062	0.0	580.6120963359283	486.8676170840676	0.0	584.3559722671984	539.2504046928386	0.0
